HIERARCHY
ROOT Hips
{
    OFFSET 0.000000 0.000000 0.000000
    CHANNELS 6 Xposition Yposition Zposition Zrotation Xrotation Yrotation
        JOINT Chest
        {
            OFFSET -0.000000 31.986500 -0.000000
            CHANNELS 3 Zrotation Xrotation Yrotation
            JOINT Neck
            {
                OFFSET -0.000000 24.131615 0.000000
                CHANNELS 3 Zrotation Xrotation Yrotation
                JOINT Head
                {
                    OFFSET -0.000000 10.450000 0.000000
                    CHANNELS 3 Zrotation Xrotation Yrotation
                    End Site
                    {
                        OFFSET -0.000000 16.150003 0.000000
                    }
                }
            }
            JOINT LeftCollar
            {
                OFFSET -0.000000 24.131615 0.000000
                CHANNELS 3 Zrotation Xrotation Yrotation
                JOINT LeftShoulder
                {
                    OFFSET 20.000000 -0.000000 0.000000
                    CHANNELS 3 Zrotation Xrotation Yrotation
                    JOINT LeftElbow
                    {
                        OFFSET 22.686384 0.000000 0.000000
                        CHANNELS 3 Zrotation Xrotation Yrotation
                        JOINT LeftWrist
                        {
                            OFFSET 24.813133 0.000000 0.000000
                            CHANNELS 3 Zrotation Xrotation Yrotation
                            End Site
                            {
                                OFFSET 0.000000 -14.250000 0.000000
                            }
                        }
                    }
                }
            }
            JOINT RightCollar
            {
                OFFSET -0.000000 24.131615 0.000000
                CHANNELS 3 Zrotation Xrotation Yrotation
                JOINT RightShoulder
                {
                    OFFSET -20.000000 0.000000 0.000000
                    CHANNELS 3 Zrotation Xrotation Yrotation
                    JOINT RightElbow
                    {
                        OFFSET -22.686384 0.000000 0.000000
                        CHANNELS 3 Zrotation Xrotation Yrotation
                        JOINT RightWrist
                        {
                            OFFSET -24.813133 0.000000 0.000000
                            CHANNELS 3 Zrotation Xrotation Yrotation
                            End Site
                            {
                                OFFSET -0.000000 -14.250000 0.000000
                            }
                        }
                    }
                }
            }
        }
    JOINT LeftHip
    {
        OFFSET 11.400001 0.000000 0.000000
        CHANNELS 3 Zrotation Xrotation Yrotation
        JOINT LeftKnee
        {
            OFFSET -0.000000 -38.315727 0.000000
            CHANNELS 3 Zrotation Xrotation Yrotation
            JOINT LeftAnkle
            {
                OFFSET -0.000000 -38.060658 0.000000
                CHANNELS 3 Zrotation Xrotation Yrotation
                End Site
                {
                    OFFSET -0.000000 -4.750000 16.150003
                }
            }
        }
    }
    JOINT RightHip
    {
        OFFSET -11.400001 0.000000 0.000000
        CHANNELS 3 Zrotation Xrotation Yrotation
        JOINT RightKnee
        {
            OFFSET -0.000000 -38.315727 0.000000
            CHANNELS 3 Zrotation Xrotation Yrotation
            JOINT RightAnkle
            {
                OFFSET -0.000000 -38.060658 0.000000
                CHANNELS 3 Zrotation Xrotation Yrotation
                End Site
                {
                    OFFSET -0.000000 -4.750000 16.150003
                }
            }
        }
    }
}
MOTION
Frames:    10
Frame Time:    0.010000
61.707233    83.456665    -63.239891    -5.948486    -0.237744    -85.974159    -8.436060    18.069952    6.464260    -9.498258    15.211982    24.720869    -19.189919    -33.453945    20.350195    -23.454992    -0.548290    2.736014    -55.427361    17.761786    -15.304201    4.351057    -1.592419    -41.211613    108.001305    1.735237    4.421718    24.281195    -0.876082    -3.978988    11.379811    61.155193    23.105726    -3.888634    -2.554831    67.503319    -107.523041    -10.854066    28.948807    18.527699    -12.467820    -7.537352    -16.410179    33.887707    8.840091    -9.380245    -7.241565    29.186148    1.631266    0.953544    3.954235    -8.262802    30.205725    11.371951    7.098963    -25.896498    -14.100109    
61.530823    83.480751    -63.236691    -6.034684    -0.075413    -86.217255    -8.083707    17.911402    6.714487    -6.934230    16.582714    23.369291    -14.928337    -30.597630    18.178648    -23.217642    -0.307744    0.372950    -55.609688    18.186142    -14.218723    4.132850    -1.489377    -40.922592    108.102722    1.398991    4.339300    24.580622    -1.111506    -6.038484    12.353465    60.573097    22.112373    -3.985129    -2.661347    67.633606    -107.769386    -10.535243    28.607077    18.764465    -12.065138    -6.974876    -16.142241    33.960350    9.025068    -6.575690    -6.156425    29.331366    1.885306    1.262810    4.253208    -8.389236    29.932774    11.270035    7.227904    -25.840382    -14.087300    
61.419117    83.406357    -63.105625    -6.065378    -0.014150    -86.308403    -7.945863    17.774656    6.603087    -6.528109    16.724497    23.363516    -15.645707    -30.674896    18.099659    -23.237101    -0.179642    0.237977    -55.575806    18.126707    -14.259470    3.947101    -1.426281    -40.960640    108.733521    0.985490    3.609639    24.590155    -1.235170    -6.183904    12.179838    60.803017    22.172873    -3.922472    -2.625501    67.620697    -107.339027    -10.121046    27.285896    18.625002    -11.896684    -6.589097    -15.710616    34.203320    8.997344    -7.872992    -6.994000    29.761410    1.840616    1.315256    4.474079    -8.277285    30.029919    11.126940    7.290217    -25.931061    -14.057760    
61.324661    83.376732    -63.041584    -6.105523    0.045559    -86.414719    -7.843662    17.673830    6.610996    -6.440394    16.768635    23.436472    -15.796169    -30.745081    18.129141    -23.229523    -0.117048    0.306279    -55.598286    18.127686    -14.364401    3.853918    -1.409600    -40.942333    108.968727    0.743146    3.229771    24.565374    -1.298481    -6.178313    12.227039    60.927307    22.025551    -3.847097    -2.569749    67.701775    -107.120987    -9.825670    26.702923    18.606936    -11.712385    -6.273602    -15.453826    34.363186    8.796601    -7.593320    -6.964716    29.896843    1.865924    1.401832    4.619612    -8.276402    30.050905    11.098793    7.340036    -25.987198    -14.055035    
61.222805    83.332024    -62.958836    -6.144255    0.104206    -86.527054    -7.730777    17.565434    6.598132    -6.317516    16.828625    23.485899    -15.970648    -30.835331    18.129377    -23.222527    -0.077445    0.316079    -55.617863    18.132359    -14.428188    3.680480    -1.337901    -40.868576    109.314186    0.449484    2.757444    24.559826    -1.337676    -6.215737    12.187031    61.017860    21.962404    -3.809189    -2.551085    67.772362    -106.761848    -9.478644    26.039055    18.559391    -11.516504    -5.945271    -15.165672    34.551685    8.467678    -7.326088    -6.928761    30.020725    1.872271    1.464600    4.754711    -8.279275    30.127895    11.106668    7.386213    -26.078485    -14.056447    
61.115932    83.268272    -62.854610    -6.179845    0.160698    -86.640709    -7.609713    17.452717    6.558417    -6.220774    16.875153    23.539604    -16.113903    -30.950836    18.136843    -23.221567    -0.057657    0.319029    -55.621979    18.149622    -14.501107    3.469359    -1.238268    -40.763222    109.739899    0.134429    2.221689    24.568384    -1.373078    -6.253637    12.029405    61.119652    22.006165    -3.782502    -2.576441    67.829216    -106.287460    -9.073901    25.326479    18.477343    -11.312971    -5.622738    -14.855453    34.760269    7.990600    -7.092387    -6.908103    30.138542    1.857421    1.493715    4.868458    -8.289906    30.273672    11.156097    7.428431    -26.211218    -14.057034    
61.005424    83.182510    -62.726593    -6.212846    0.214784    -86.751183    -7.479227    17.340944    6.488648    -6.141114    16.908205    23.593044    -16.234818    -31.078238    18.145981    -23.228798    -0.077480    0.312113    -55.607273    18.213083    -14.584856    3.240672    -1.142684    -40.631004    110.266243    -0.177213    1.660207    24.601736    -1.342273    -6.291770    11.769642    61.173767    22.125328    -3.799960    -2.528386    67.892815    -105.611732    -8.611101    24.594698    18.357410    -11.101948    -5.321010    -14.533006    34.978615    7.359351    -6.901654    -6.935702    30.267941    1.821417    1.486723    4.954608    -8.312033    30.492685    11.242690    7.470044    -26.387560    -14.047944    
60.891449    83.072990    -62.573189    -6.245821    0.266932    -86.854225    -7.336439    17.236897    6.387150    -6.060164    16.928623    23.644815    -16.363153    -31.197960    18.153826    -23.246874    -0.057793    0.299594    -55.558296    18.265451    -14.733485    2.908268    -0.988899    -40.371475    110.945900    -0.525056    1.089726    24.647707    -1.367255    -6.323169    11.330545    61.297543    22.431826    -3.889307    -2.630546    67.880585    -104.834366    -8.100558    23.806318    18.197746    -10.880074    -5.047610    -14.206151    35.195290    6.589104    -6.747571    -7.048198    30.432873    1.766410    1.448630    5.010768    -8.349371    30.780560    11.354781    7.517303    -26.605572    -14.018182    
60.773014    82.939468    -62.393707    -6.283277    0.318951    -86.944778    -7.177446    17.146915    6.253492    -5.945634    16.946608    23.690401    -16.544310    -31.287930    18.150450    -23.277191    -0.029969    0.278002    -55.474854    18.372065    -14.962704    2.597222    -0.855454    -40.061890    111.728226    -0.833234    0.588868    24.714888    -1.374712    -6.345712    10.834856    61.415562    22.765753    -3.946501    -2.666010    67.860779    -103.983322    -7.552809    23.028378    17.998291    -10.640924    -4.803251    -13.879047    35.396286    5.721707    -6.611945    -7.277247    30.653160    1.696911    1.391728    5.036556    -8.405146    31.124361    11.477176    7.578433    -26.860014    -13.957367    
60.648026    82.783218    -62.188129    -6.331929    0.374678    -87.017349    -6.996831    17.077246    6.087400    -5.772928    16.972994    23.728695    -16.812372    -31.332315    18.130795    -23.321068    -0.030170    0.246966    -55.371071    18.569153    -15.249276    2.329186    -0.757795    -39.703476    112.616646    -1.046168    0.176831    24.798183    -1.403883    -6.355113    10.253015    61.558205    23.182928    -4.030437    -2.743297    67.775543    -103.063652    -6.994486    22.228445    17.761459    -10.373053    -4.584172    -13.552024    35.561092    4.827782    -6.474655    -7.645217    30.932747    1.619919    1.334989    5.035387    -8.480109    31.504396    11.591913    7.661049    -27.142860    -13.858981    
